<svg viewBox="0 0 32 32" fill="none" xmlns="http://www.w3.org/2000/svg" id="Books-Flat--Streamline-Fluent-Emoji" height="32" width="32">
  <desc>
    Books Flat Streamline Emoji: https://streamlinehq.com
  </desc>
  <path d="M17.0454 27.2857H30V13c0 -1.1046 -0.8955 -2 -2 -2H17.0454v16.2857Z" fill="#00a6ed" stroke-width="1"></path>
  <path d="M15.6818 27.9642H30v1.3572H15.6818v-1.3572Z" fill="#d3d3d3" stroke-width="1"></path>
  <path d="M16.0227 11C15.4579 11 15 11.4557 15 12.0179v16.625h0.6818c0 -0.3748 0.3053 -0.6786 0.6818 -0.6786h0.6819V11h-1.0228Z" fill="#0074ba" stroke-width="1"></path>
  <path d="M16.0227 27.2858c-0.5648 0 -1.0227 0.4557 -1.0227 1.0178v0.6786c0 0.5621 0.4579 1.0179 1.0227 1.0179h12.9546c0.4453 0 0.8241 -0.2833 0.9645 -0.6786H16.3636c-0.3765 0 -0.6818 -0.3038 -0.6818 -0.6786 0 -0.3748 0.3053 -0.6786 0.6818 -0.6786H30v-0.6785H16.0227Z" fill="#0074ba" stroke-width="1"></path>
  <path d="M10.0454 23.2857H23V9c0 -1.10457 -0.8955 -2 -2 -2H10.0454v16.2857Z" fill="#ca0b4a" stroke-width="1"></path>
  <path d="M8.68182 23.9642H23v1.3572H8.68182v-1.3572Z" fill="#d3d3d3" stroke-width="1"></path>
  <path d="M9.02273 7C8.45789 7 8 7.45571 8 8.01786V24.6429h0.68182c0 -0.3748 0.30526 -0.6786 0.68182 -0.6786h0.68186V7H9.02273Z" fill="#990838" stroke-width="1"></path>
  <path d="M9.02273 23.2858C8.45789 23.2858 8 23.7415 8 24.3036v0.6786c0 0.5621 0.45789 1.0179 1.02273 1.0179H21.9773c0.4453 0 0.8241 -0.2833 0.9645 -0.6786H9.36364c-0.37656 0 -0.68182 -0.3038 -0.68182 -0.6786 0 -0.3748 0.30526 -0.6786 0.68182 -0.6786H23v-0.6785H9.02273Z" fill="#990838" stroke-width="1"></path>
  <path d="M4.04541 20.2857H17V6c0 -1.10457 -0.8955 -2 -2 -2H4.04541v16.2857Z" fill="#86d72f" stroke-width="1"></path>
  <path d="M2.68182 20.9642H17v1.3572H2.68182v-1.3572Z" fill="#d3d3d3" stroke-width="1"></path>
  <path d="M3.02273 4C2.45789 4 2 4.45571 2 5.01786V21.6429h0.68182c0 -0.3748 0.30526 -0.6786 0.68182 -0.6786h0.68181V4H3.02273Z" fill="#44911b" stroke-width="1"></path>
  <path d="M3.02273 20.2858C2.45789 20.2858 2 20.7415 2 21.3036v0.6786c0 0.5621 0.45789 1.0179 1.02273 1.0179H15.9773c0.4453 0 0.8241 -0.2833 0.9645 -0.6786H3.36364c-0.37656 0 -0.68182 -0.3038 -0.68182 -0.6786 0 -0.3748 0.30526 -0.6786 0.68182 -0.6786H17v-0.6785H3.02273Z" fill="#008463" stroke-width="1"></path>
</svg>